<svg xmlns="http://www.w3.org/2000/svg" fill="none" viewBox="0 0 19 19">
  <path d="M18.077 5.506c.493-.749.845-1.506.845-2.143A3.367 3.367 0 0015.558 0a3.35 3.35 0 00-2.227.845A9.399 9.399 0 009.482.03a9.419 9.419 0 00-6.705 2.778A9.424 9.424 0 000 9.515c0 2.534.986 4.915 2.777 6.707A9.419 9.419 0 009.482 19a9.418 9.418 0 006.705-2.778 9.425 9.425 0 002.777-6.707 9.391 9.391 0 00-.887-4.01zM15.558 1.11a2.255 2.255 0 012.253 2.252c0 .658-.826 1.956-2.157 3.387a.128.128 0 01-.096.042.128.128 0 01-.095-.042c-1.33-1.431-2.157-2.73-2.157-3.387a2.255 2.255 0 012.252-2.252zM3.563 3.594a8.315 8.315 0 016.29-2.444v.58c0 .493-.351.922-.836 1.02l-.766.152a2.157 2.157 0 00-1.73 2.11v1.035c0 .265-.1.517-.28.71L5.205 7.865a2.137 2.137 0 00-.554 1.81c.061.381-.085.75-.39.986a1.026 1.026 0 01-1.052.132l-1.502-.654a2.139 2.139 0 00-.584-.161 8.32 8.32 0 012.439-6.383zM1.272 11.16l1.494.65a2.13 2.13 0 002.177-.272 2.12 2.12 0 00.806-2.04c-.05-.315.05-.642.268-.875l1.035-1.106c.374-.4.58-.922.58-1.47V5.012c0-.494.352-.923.836-1.02l.767-.153a2.157 2.157 0 001.73-2.11v-.457c.563.1 1.112.258 1.645.473a3.342 3.342 0 00-.415 1.618c0 1.242 1.334 2.939 2.454 4.144a1.246 1.246 0 001.82 0 20 20 0 00.841-.965c.36.945.543 1.942.543 2.973 0 .31-.017.615-.05.918a2.05 2.05 0 00-1.405-.221l-.952.19a.945.945 0 01-.805-.215 2.053 2.053 0 00-3.046.38l-1.026 1.493a.945.945 0 01-.485.362l-.662.214a2.058 2.058 0 00-1.408 2.18l.094.835a.94.94 0 01-.01.28l-.339 1.78a8.312 8.312 0 01-4.196-2.275 8.316 8.316 0 01-2.291-4.276zm14.13 4.276a8.315 8.315 0 01-6.541 2.43l.328-1.727a2.05 2.05 0 00.023-.611l-.093-.835a.943.943 0 01.645-1l.662-.214c.428-.138.805-.42 1.06-.79l1.025-1.494a.929.929 0 01.659-.4.928.928 0 01.737.226c.477.42 1.134.596 1.758.471l.952-.19a.939.939 0 01.78.193l.188.133a8.325 8.325 0 01-2.184 3.808z" fill="#0469FF"/>
  <path d="M15.558 3.951c.29 0 .57-.255.556-.555-.014-.301-.244-.556-.556-.556-.29 0-.569.256-.555.556.013.3.244.555.555.555z" fill="#E8EAEE"/>
</svg>
